<?xml version="1.0" encoding="UTF-8"?>
<svg width="454px" height="350px" viewBox="0 0 454 350" version="1.1" xmlns="http://www.w3.org/2000/svg" xmlns:xlink="http://www.w3.org/1999/xlink">
    <!-- Generator: sketchtool 59.1 (101010) - https://sketch.com -->
    <title>909AFFF4-1C25-428D-86B7-D5168F414762</title>
    <desc>Created with sketchtool.</desc>
    <defs>
        <rect id="path-1" x="0" y="0" width="454" height="350"></rect>
        <polygon id="path-3" points="0 410.4 576.7902 410.4 576.7902 0.1263 0 0.1263"></polygon>
        <path d="M42.3693,28.3263 C42.3693,28.3263 46.569,49.9263 33.369,48.1263 L33.369,48.1263 C20.169,46.3263 3.669,43.6263 3.669,43.6263 L3.669,43.6263 L0.0693,59.8263 C0.969,59.8263 42.3693,71.2263 54.3693,65.5263 L54.3693,65.5263 C66.369,59.8263 61.8693,15.4263 61.8693,15.4263 L61.8693,15.4263 L41.169,0.1263" id="path-5"></path>
        <polygon id="path-7" points="0.16130495 0.1263 310.827234 0.1263 310.827234 293.704097 0.16130495 293.704097"></polygon>
    </defs>
    <g id="Blog_" stroke="none" stroke-width="1" fill="none" fill-rule="evenodd">
        <g id="05Blog_" transform="translate(-664.000000, -2304.000000)">
            <g id="GENERICO" transform="translate(664.000000, 2304.000000)">
                <mask id="mask-2" fill="white">
                    <use xlink:href="#path-1"></use>
                </mask>
                <use id="Mask" fill="#F1F1F1" xlink:href="#path-1"></use>
                <g id="Group-205" mask="url(#mask-2)">
                    <g transform="translate(-40.000000, -31.000000)">
                        <polygon id="Fill-1" fill="#202534" points="276.0693 135.9003 501.9693 135.9003 501.9693 26.1003 276.0693 26.1003"></polygon>
                        <g id="Group-159" stroke-width="1" fill="none" transform="translate(0.000000, 0.174000)">
                            <path d="M458.76918,69.4263 C458.76918,75.7224 453.66528,80.8263 447.36918,80.8263 C441.07308,80.8263 435.96918,75.7224 435.96918,69.4263 C435.96918,63.1302 441.07308,58.0263 447.36918,58.0263 C453.66528,58.0263 458.76918,63.1302 458.76918,69.4263" id="Fill-2" fill="#25334B"></path>
                            <path d="M404.46918,61.6263 C404.46918,67.9224 399.36528,73.0263 393.06918,73.0263 C386.77308,73.0263 381.66918,67.9224 381.66918,61.6263 C381.66918,55.3302 386.77308,50.2263 393.06918,50.2263 C399.36528,50.2263 404.46918,55.3302 404.46918,61.6263" id="Fill-4" fill="#25334B"></path>
                            <path d="M348.36918,72.4263 C348.36918,78.7224 343.26528,83.8263 336.96918,83.8263 C330.67308,83.8263 325.56918,78.7224 325.56918,72.4263 C325.56918,66.1302 330.67308,61.0263 336.96918,61.0263 C343.26528,61.0263 348.36918,66.1302 348.36918,72.4263" id="Fill-6" fill="#25334B"></path>
                            <path d="M444.86487,69.4263 L444.86487,69.4263 C444.59217,69.4263 444.36927,69.2034 444.36927,68.9307 L444.36927,66.0219 C444.36927,65.7492 444.59217,65.5263 444.86487,65.5263 C445.13727,65.5263 445.36047,65.7492 445.36047,66.0219 L445.36047,68.9307 C445.36047,69.2034 445.13727,69.4263 444.86487,69.4263" id="Fill-8" fill="#FFFFFF"></path>
                            <path d="M449.57346,69.4263 L449.57346,69.4263 C449.30106,69.4263 449.07786,69.2034 449.07786,68.9307 L449.07786,66.0219 C449.07786,65.7492 449.30106,65.5263 449.57346,65.5263 C449.84616,65.5263 450.06906,65.7492 450.06906,66.0219 L450.06906,68.9307 C450.06906,69.2034 449.84616,69.4263 449.57346,69.4263" id="Fill-10" fill="#FFFFFF"></path>
                            <path d="M389.66487,61.6263 L389.66487,61.6263 C389.39217,61.6263 389.16927,61.4034 389.16927,61.1307 L389.16927,58.2219 C389.16927,57.9492 389.39217,57.7263 389.66487,57.7263 C389.93727,57.7263 390.16047,57.9492 390.16047,58.2219 L390.16047,61.1307 C390.16047,61.4034 389.93727,61.6263 389.66487,61.6263" id="Fill-12" fill="#FFFFFF"></path>
                            <path d="M394.37346,61.6263 L394.37346,61.6263 C394.10106,61.6263 393.87786,61.4034 393.87786,61.1307 L393.87786,58.2219 C393.87786,57.9492 394.10106,57.7263 394.37346,57.7263 C394.64616,57.7263 394.86906,57.9492 394.86906,58.2219 L394.86906,61.1307 C394.86906,61.4034 394.64616,61.6263 394.37346,61.6263" id="Fill-14" fill="#FFFFFF"></path>
                            <path d="M342.17346,72.4263 L342.17346,72.4263 C341.90106,72.4263 341.67786,72.2034 341.67786,71.9307 L341.67786,69.0219 C341.67786,68.7492 341.90106,68.5263 342.17346,68.5263 C342.44616,68.5263 342.66906,68.7492 342.66906,69.0219 L342.66906,71.9307 C342.66906,72.2034 342.44616,72.4263 342.17346,72.4263" id="Fill-16" fill="#FFFFFF"></path>
                            <path d="M303.96915,132.6261 C303.36915,130.935 313.86915,84.9972 329.46915,85.5609 C345.06915,86.1246 353.46915,100.7796 354.96915,100.7796 C356.46915,100.7796 379.30155,74.0061 385.88535,74.4288 C392.46915,74.8515 395.46915,69.2148 401.76915,77.9514 C408.06915,86.6883 420.66915,96.834 424.86915,102.7524 C429.06915,108.6708 426.03765,80.8623 441.80325,82.7889 C457.56915,84.7155 461.16915,81.897 464.16915,92.6067 C467.16915,103.3161 474.66915,116.562 474.66915,116.562 L491.51715,135.69 L303.96915,135.7263 L303.96915,132.6261 Z" id="Fill-18" fill="#25334B"></path>
                            <polygon id="Fill-20" fill="#FFFFFF" opacity="0.0675223214" points="365.91918 138.7263 276.66918 138.7263 276.66918 28.9263 492.06918 28.9263"></polygon>
                            <path d="M337.46487,72.4263 L337.46487,72.4263 C337.19217,72.4263 336.96927,72.2034 336.96927,71.9307 L336.96927,69.0219 C336.96927,68.7492 337.19217,68.5263 337.46487,68.5263 C337.73727,68.5263 337.96047,68.7492 337.96047,69.0219 L337.96047,71.9307 C337.96047,72.2034 337.73727,72.4263 337.46487,72.4263" id="Fill-22" fill="#FFFFFF"></path>
                            <path d="M199.41915,308.3763 L110.31915,320.6763 C110.31915,320.6763 27.51915,359.3763 16.11915,376.7763 C4.71915,394.1763 7.71915,408.5763 49.41915,410.0763 C91.11915,411.5763 123.51915,407.3763 123.51915,407.3763 L221.46915,384.2763 L230.01915,402.8763 L461.91915,360.8763 L304.26915,306.1263 L199.41915,308.3763 Z" id="Fill-24" fill="#25334B"></path>
                            <path d="M124.86918,202.1763 C124.86918,202.1763 126.66918,116.3763 184.86918,110.9763 C243.06918,105.5763 267.96918,145.4763 272.16918,174.2763 C276.36918,203.0763 272.16918,230.0763 272.16918,230.0763 L124.86918,234.8763 L124.86918,202.1763 Z" id="Fill-26" fill="#25334B"></path>
                            <path d="M221.46915,112.6263 C221.46915,124.3899 213.27585,133.9263 203.16915,133.9263 C193.06245,133.9263 184.86915,124.3899 184.86915,112.6263 C184.86915,100.8627 193.06245,91.3263 203.16915,91.3263 C213.27585,91.3263 221.46915,100.8627 221.46915,112.6263" id="Fill-28" fill="#FFACAF"></path>
                            <path d="M185.16915,108.7263 C185.16915,108.7263 194.76915,100.9263 198.06915,104.2263 C201.36915,107.5263 202.26915,111.1263 207.36915,109.0263 C212.46915,106.9263 208.56915,104.2263 212.16915,103.3263 C215.76915,102.4263 221.46915,109.6263 221.46915,109.6263 C221.46915,109.6263 218.50005,90.6639 202.26915,91.3263 C187.56915,91.9263 185.16915,108.7263 185.16915,108.7263" id="Fill-30" fill="#202534"></path>
                            <path d="M199.56915,91.3263 C199.56915,91.3263 192.36915,84.4263 197.16915,82.9263 C201.96915,81.4263 205.86915,83.2263 199.56915,91.3263" id="Fill-32" fill="#202534"></path>
                            <path d="M205.41915,130.6263 L205.41915,130.6263 C204.84165,130.6263 204.36915,130.1538 204.36915,129.5763 L204.36915,121.1763 C204.36915,120.5988 204.84165,120.1263 205.41915,120.1263 C205.99665,120.1263 206.46915,120.5988 206.46915,121.1763 L206.46915,129.5763 C206.46915,130.1538 205.99665,130.6263 205.41915,130.6263" id="Fill-34" fill="#FF2B39"></path>
                            <path d="M203.16915,133.9263 C202.26915,134.8263 214.56915,151.6263 216.66915,162.4263 C218.76915,173.2263 202.26915,176.2263 203.46915,183.1263 C204.66915,190.0263 214.50375,212.2728 214.50375,212.2728" id="Stroke-36" stroke="#FFFFFF" stroke-width="0.5"></path>
                            <polygon id="Fill-38" fill="#202534" points="185.16915 280.9263 206.76915 352.0263 220.86915 294.3195"></polygon>
                            <polygon id="Fill-40" fill="#202534" points="246.06915 292.0263 308.76915 361.0263 283.26915 279.1263"></polygon>
                            <path d="M224.03982,361.69077 L224.03982,361.69077 C223.59852,362.57697 222.51252,362.94117 221.62632,362.49957 L204.70752,354.07527 C203.82132,353.63427 203.45742,352.54797 203.89842,351.66177 C204.33972,350.77557 205.42602,350.41137 206.31222,350.85297 L223.23072,359.27727 C224.11692,359.71857 224.48112,360.80457 224.03982,361.69077" id="Fill-42" fill="#202534"></path>
                            <path d="M307.55073,360.7017 L307.55073,360.7017 C306.95883,359.9079 307.12383,358.7745 307.91763,358.1826 L323.06883,346.884 C323.86233,346.2924 324.99573,346.4574 325.58763,347.2509 C326.17953,348.0447 326.01453,349.1781 325.22073,349.7703 L310.06953,361.0686 C309.27603,361.6602 308.14263,361.4955 307.55073,360.7017" id="Fill-44" fill="#202534"></path>
                            <mask id="mask-4" fill="white">
                                <use xlink:href="#path-3"></use>
                            </mask>
                            <g id="Clip-47"></g>
                            <polygon id="Fill-46" fill="#25334B" mask="url(#mask-4)" points="294.9693 319.9263 304.2693 319.9263 304.2693 208.9263 294.9693 208.9263"></polygon>
                            <polygon id="Fill-48" fill="#25334B" mask="url(#mask-4)" points="86.4693 348.7263 95.1693 348.7263 95.1693 239.2263 86.4693 239.2263"></polygon>
                            <path d="M103.26918,245.2263 C106.86918,249.4263 223.56918,309.4263 223.56918,309.4263 L422.16918,274.0263 L422.16918,246.4263 L303.36918,200.8263 L69.66918,238.0263 L103.26918,245.2263 Z" id="Fill-49" fill="#D8E0EC" mask="url(#mask-4)"></path>
                            <polygon id="Fill-50" fill="#D8E0EC" mask="url(#mask-4)" points="220.8693 402.1263 230.1693 402.1263 230.1693 291.1263 220.8693 291.1263"></polygon>
                            <polygon id="Fill-51" fill="#D8E0EC" mask="url(#mask-4)" points="412.2693 367.3263 421.5693 367.3263 421.5693 256.3263 412.2693 256.3263"></polygon>
                            <path d="M227.46915,263.2263 C227.46915,263.2263 195.66915,282.7263 195.06915,283.3263 C194.46915,283.9263 191.91915,293.0604 191.91915,293.0604 L177.96915,286.6263 L157.86915,274.3263 L153.96915,243.1263 L183.37635,266.1432 L227.46915,263.2263 Z" id="Fill-52" fill="#25334B" mask="url(#mask-4)"></path>
                            <path d="M272.68566,238.33686 C272.68566,238.33686 281.16906,242.22636 283.26906,242.52636 C285.36906,242.82636 307.26906,239.52636 307.26906,239.52636 C307.26906,239.52636 312.96906,253.32636 315.66906,253.62636 C318.36906,253.92636 330.06906,255.42636 330.06906,255.42636 L333.96906,256.80336 C333.96906,256.80336 349.26906,263.22636 350.76906,265.32636 C352.26906,267.42636 387.66906,277.62636 395.46906,269.22636 L395.48076,279.12636 L412.26906,275.79096 L421.56906,318.89376 C421.56906,318.89376 421.86906,243.12636 422.170259,243.42636 C422.46906,243.72636 366.36906,211.32636 366.36906,211.32636 C366.36906,211.32636 301.56906,230.82636 295.56906,230.52636 C289.56906,230.22636 272.68566,238.33686 272.68566,238.33686" id="Fill-53" fill="#25334B" mask="url(#mask-4)"></path>
                            <path d="M242.46915,233.2263 C243.66915,233.8263 274.86915,229.9263 274.86915,229.9263 L270.96915,223.9263 L243.06915,222.7263 L242.46915,233.2263 Z" id="Fill-54" fill="#25334B" mask="url(#mask-4)"></path>
                            <path d="M416.76918,139.9263 C416.76918,148.0449 410.18778,154.6263 402.06918,154.6263 C393.95058,154.6263 387.36918,148.0449 387.36918,139.9263 C387.36918,131.8077 393.95058,125.2263 402.06918,125.2263 C410.18778,125.2263 416.76918,131.8077 416.76918,139.9263" id="Fill-55" fill="#FF616A" mask="url(#mask-4)"></path>
                            <path d="M396.23208,137.99799 C395.96568,137.99799 395.73918,138.09099 395.55348,138.27699 C395.36748,138.46299 395.27478,138.68589 395.27478,138.94599 L395.27478,142.94319 C395.27478,143.20959 395.36748,143.43579 395.55348,143.62179 C395.73918,143.80779 395.96538,143.90049 396.23208,143.90049 C396.49848,143.90049 396.72318,143.80779 396.90588,143.62179 C397.08858,143.43579 397.18008,143.20959 397.18008,142.94319 L397.18008,138.94599 C397.18008,138.68589 397.08738,138.46269 396.90108,138.27699 C396.71538,138.09129 396.49218,137.99799 396.23208,137.99799" id="Fill-56" fill="#FFFFFF" mask="url(#mask-4)"></path>
                            <path d="M397.8522,144.36537 C397.8522,144.65037 397.9515,144.89217 398.1495,145.09047 C398.3478,145.28847 398.5896,145.38777 398.8746,145.38777 L399.5625,145.38777 L399.5718,147.49767 C399.5718,147.76437 399.6651,147.99057 399.8508,148.17627 C400.0365,148.36227 400.2597,148.45527 400.5201,148.45527 C400.7865,148.45527 401.0127,148.36227 401.1987,148.17627 C401.3844,147.99057 401.4774,147.76437 401.4774,147.49767 L401.4774,145.38777 L402.7602,145.38777 L402.7602,147.49767 C402.7602,147.76437 402.8532,147.99057 403.0389,148.17627 C403.2249,148.36227 403.4511,148.45527 403.7178,148.45527 C403.9839,148.45527 404.2101,148.36227 404.3958,148.17627 C404.5821,147.99057 404.6748,147.76437 404.6748,147.49767 L404.6748,145.38777 L405.3717,145.38777 C405.6507,145.38777 405.8892,145.28877 406.0875,145.09047 C406.2858,144.89217 406.3851,144.65037 406.3851,144.36537 L406.3851,138.17457 L397.8522,138.17457 L397.8522,144.36537 Z" id="Fill-57" fill="#FFFFFF" mask="url(#mask-4)"></path>
                            <path d="M404.33118,135.58071 C404.26248,135.65211 404.17908,135.68751 404.07978,135.68751 C403.98078,135.68751 403.89588,135.65211 403.82448,135.58071 C403.75308,135.50961 403.71768,135.42441 403.71768,135.32511 C403.71768,135.22581 403.75308,135.14061 403.82448,135.06951 C403.89588,134.99841 403.98078,134.96241 404.07978,134.96241 C404.17908,134.96241 404.26248,134.99841 404.33118,135.06951 C404.39928,135.14061 404.43318,135.22581 404.43318,135.32511 C404.43318,135.42441 404.39928,135.50961 404.33118,135.58071 M400.41288,135.58071 C400.34148,135.65211 400.25658,135.68751 400.15728,135.68751 C400.05828,135.68751 399.97458,135.65211 399.90618,135.58071 C399.83808,135.50961 399.80388,135.42441 399.80388,135.32511 C399.80388,135.22581 399.83808,135.14061 399.90618,135.06951 C399.97458,134.99841 400.05828,134.96241 400.15728,134.96241 C400.25628,134.96241 400.34148,134.99841 400.41288,135.06951 C400.48428,135.14061 400.51968,135.22581 400.51968,135.32511 C400.51968,135.42441 400.48428,135.50961 400.41288,135.58071 M404.22858,133.81011 L404.88828,132.59241 C404.93208,132.51201 404.91618,132.44961 404.84208,132.40641 C404.76168,132.36921 404.69958,132.38781 404.65638,132.46221 L403.98708,133.68921 C403.39818,133.42881 402.77538,133.29891 402.11868,133.29891 C401.46198,133.29891 400.83888,133.42881 400.24998,133.68921 L399.58098,132.46221 C399.53748,132.38781 399.47538,132.36921 399.39498,132.40641 C399.32088,132.44961 399.30528,132.51201 399.34878,132.59241 L400.00878,133.81011 C399.33918,134.15061 398.80638,134.62641 398.40978,135.23691 C398.01318,135.84741 397.81488,136.51491 397.81488,137.24001 L406.41318,137.24001 C406.41318,136.51491 406.21488,135.84741 405.81828,135.23691 C405.42168,134.62641 404.89188,134.15061 404.22858,133.81011" id="Fill-58" fill="#FFFFFF" mask="url(#mask-4)"></path>
                            <path d="M408.68382,138.27219 C408.49782,138.08949 408.27162,137.99799 408.00522,137.99799 C407.74512,137.99799 407.52192,138.08949 407.33622,138.27219 C407.15022,138.45489 407.05722,138.67959 407.05722,138.94599 L407.05722,142.94319 C407.05722,143.20959 407.15022,143.43579 407.33622,143.62179 C407.52192,143.80779 407.74512,143.90049 408.00522,143.90049 C408.27162,143.90049 408.49782,143.80779 408.68382,143.62179 C408.86982,143.43579 408.96282,143.20959 408.96282,142.94319 L408.96282,138.94599 C408.96282,138.67959 408.86982,138.45489 408.68382,138.27219" id="Fill-59" fill="#FFFFFF" mask="url(#mask-4)"></path>
                            <path d="M388.96206,146.57874 C388.96206,146.57874 369.66906,161.22624 370.26906,161.22624 C370.86906,161.22624 393.36906,148.32624 393.36906,148.32624 L388.96206,146.57874 Z" id="Fill-60" fill="#FF616A" mask="url(#mask-4)"></path>
                            <path d="M454.8393,162.50952 C454.0026,170.58492 446.7777,176.45292 438.7023,175.61592 C430.6272,174.77922 424.7589,167.55462 425.5956,159.47922 C426.4329,151.40382 433.6575,145.53582 441.7329,146.37282 C449.808,147.20952 455.676,154.43412 454.8393,162.50952" id="Fill-61" fill="#FF616A" mask="url(#mask-4)"></path>
                            <path d="M426.9642,158.42757 C425.4102,158.86977 365.079,167.69817 365.079,167.69817 L428.4345,164.61177 L426.9642,158.42757 Z" id="Fill-62" fill="#FF616A" mask="url(#mask-4)"></path>
                            <path d="M445.4769,163.05969 C445.0413,162.42489 444.8265,161.71179 444.8325,160.92069 C444.8376,160.19979 445.05,159.54099 445.4691,158.94399 C445.6947,158.62029 446.061,158.24679 446.5686,157.82289 C446.2395,157.41219 445.9101,157.09089 445.5801,156.85839 C444.9831,156.43959 444.3051,156.22719 443.5458,156.221414 C443.0931,156.21819 442.5402,156.32259 441.888,156.53499 C441.261,156.74709 440.8041,156.85269 440.517,156.85029 C440.2998,156.84879 439.8603,156.75009 439.1982,156.55359 C438.5298,156.35709 437.9658,156.25719 437.5065,156.25389 C436.4088,156.24609 435.4995,156.69879 434.7783,157.61229 C434.0505,158.53869 433.6812,159.72879 433.6707,161.18379 C433.659,162.72789 434.1165,164.33589 435.0423,166.00809 C435.9807,167.66739 436.9347,168.50109 437.9046,168.50799 C438.2301,168.51039 438.6519,168.40479 439.1706,168.19179 C439.6887,167.98539 440.1426,167.88309 440.532,167.88609 C440.9463,167.88909 441.4275,167.99469 441.9747,168.20289 C442.5537,168.41109 442.9995,168.51609 443.3121,168.518538 C444.129,168.52479 444.9534,167.90529 445.7856,166.66089 C446.3274,165.86709 446.7255,165.07269 446.9805,164.27709 C446.4138,164.10039 445.9125,163.69449 445.4769,163.05969" id="Fill-63" fill="#FFFFFF" mask="url(#mask-4)"></path>
                            <path d="M442.28382,154.73793 C442.68882,154.33893 442.98882,153.90093 443.18352,153.42393 C443.37192,152.94663 443.46732,152.51343 443.47032,152.12403 C443.47062,152.09853 443.46942,152.06673 443.46612,152.02863 C443.46372,151.99023 443.46222,151.95813 443.46252,151.93263 C443.45592,151.91343 443.44842,151.87833 443.43942,151.82733 C443.43012,151.77633 443.42262,151.74123 443.41602,151.72173 C442.29102,151.97553 441.49002,152.44173 441.01302,153.12093 C440.52942,153.80673 440.27472,154.62453 440.24862,155.57493 C440.67642,155.53983 441.00822,155.48823 441.24492,155.41953 C441.59052,155.30703 441.93642,155.08023 442.28382,154.73793" id="Fill-64" fill="#FFFFFF" mask="url(#mask-4)"></path>
                            <path d="M51.06918,178.3263 C51.06918,187.9359 43.27908,195.7263 33.66918,195.7263 C24.05928,195.7263 16.26918,187.9359 16.26918,178.3263 C16.26918,168.7167 24.05928,160.9263 33.66918,160.9263 C43.27908,160.9263 51.06918,168.7167 51.06918,178.3263" id="Fill-65" fill="#FF2B39" mask="url(#mask-4)"></path>
                            <path d="M49.56477,185.41233 C49.86927,184.62633 101.46927,181.92633 101.46927,181.92633 L50.21367,176.22633 L49.56477,185.41233 Z" id="Fill-66" fill="#FF2B39" mask="url(#mask-4)"></path>
                            <path d="M103.26918,147.4263 C103.26918,155.7105 96.55338,162.4263 88.26918,162.4263 C79.98498,162.4263 73.26918,155.7105 73.26918,147.4263 C73.26918,139.1421 79.98498,132.4263 88.26918,132.4263 C96.55338,132.4263 103.26918,139.1421 103.26918,147.4263" id="Fill-67" fill="#25334B" mask="url(#mask-4)"></path>
                            <path d="M93.06918,157.6263 C94.26918,157.0263 112.56918,181.9263 112.56918,181.9263 L96.96918,148.3263 L93.06918,157.6263 Z" id="Fill-68" fill="#25334B" mask="url(#mask-4)"></path>
                            <path d="M86.6925,155.2956 L88.2096,155.2956 L88.2096,152.919 L86.6925,152.919 L86.6925,155.2956 Z M86.6667,150.8091 C86.6667,149.8317 86.8422,149.0544 87.1938,148.4769 C87.5448,147.8997 88.0977,147.4185 88.8522,147.0333 C89.1948,146.8554 89.5722,146.6742 89.9835,146.4891 C90.3948,146.3043 90.7809,146.0784 91.1406,145.8114 C91.5006,145.5453 91.8048,145.227 92.0535,144.8565 C92.3016,144.4866 92.4261,144.0276 92.4261,143.4798 C92.4261,142.9908 92.3274,142.5693 92.1306,142.2135 C91.9332,141.858 91.6719,141.558 91.3464,141.3141 C91.0206,141.0699 90.6477,140.8887 90.228,140.7699 C89.8077,140.6514 89.3751,140.5923 88.9293,140.5923 C88.0038,140.5923 87.1764,140.8107 86.448,141.2472 C85.7193,141.6843 85.1664,142.2213 84.7896,142.8576 L83.5812,142.1916 C83.8209,141.7326 84.1296,141.3252 84.507,140.97 C84.8838,140.6145 85.308,140.3148 85.7796,140.0703 C86.2509,139.8258 86.7567,139.641 87.2967,139.515 C87.8367,139.3893 88.3893,139.3263 88.9551,139.3263 C89.589,139.3263 90.2064,139.4115 90.8067,139.5819 C91.4061,139.7523 91.9419,140.0148 92.4135,140.3703 C92.8845,140.7255 93.2619,141.1698 93.5448,141.7029 C93.8277,142.2357 93.9693,142.8576 93.9693,143.5686 C93.9693,144.1605 93.8703,144.6606 93.6735,145.0677 C93.4761,145.4751 93.2145,145.8267 92.8893,146.1228 C92.5635,146.4189 92.1906,146.6742 91.7706,146.8887 C91.3503,147.1038 90.9261,147.3147 90.4977,147.5217 C90.1893,147.6702 89.8977,147.8217 89.6235,147.9771 C89.3493,148.1328 89.1006,148.3326 88.878,148.5768 C88.6551,148.821 88.4796,149.121 88.3509,149.4765 C88.2225,149.8317 88.158,150.2757 88.158,150.8091 L86.6667,150.8091 Z" id="Fill-69" fill="#FFFFFF" mask="url(#mask-4)"></path>
                            <path d="M86.6925,155.2956 L88.2096,155.2956 L88.2096,152.919 L86.6925,152.919 L86.6925,155.2956 Z M86.6667,150.8091 C86.6667,149.8317 86.8422,149.0544 87.1938,148.4769 C87.5448,147.8997 88.0977,147.4185 88.8522,147.0333 C89.1948,146.8554 89.5722,146.6742 89.9835,146.4891 C90.3948,146.3043 90.7809,146.0784 91.1406,145.8114 C91.5006,145.5453 91.8048,145.227 92.0535,144.8565 C92.3016,144.4866 92.4261,144.0276 92.4261,143.4798 C92.4261,142.9908 92.3274,142.5693 92.1306,142.2135 C91.9332,141.858 91.6719,141.558 91.3464,141.3141 C91.0206,141.0699 90.6477,140.8887 90.228,140.7699 C89.8077,140.6514 89.3751,140.5923 88.9293,140.5923 C88.0038,140.5923 87.1764,140.8107 86.448,141.2472 C85.7193,141.6843 85.1664,142.2213 84.7896,142.8576 L83.5812,142.1916 C83.8209,141.7326 84.1296,141.3252 84.507,140.97 C84.8838,140.6145 85.308,140.3148 85.7796,140.0703 C86.2509,139.8258 86.7567,139.641 87.2967,139.515 C87.8367,139.3893 88.3893,139.3263 88.9551,139.3263 C89.589,139.3263 90.2064,139.4115 90.8067,139.5819 C91.4061,139.7523 91.9419,140.0148 92.4135,140.3703 C92.8845,140.7255 93.2619,141.1698 93.5448,141.7029 C93.8277,142.2357 93.9693,142.8576 93.9693,143.5686 C93.9693,144.1605 93.8703,144.6606 93.6735,145.0677 C93.4761,145.4751 93.2145,145.8267 92.8893,146.1228 C92.5635,146.4189 92.1906,146.6742 91.7706,146.8887 C91.3503,147.1038 90.9261,147.3147 90.4977,147.5217 C90.1893,147.6702 89.8977,147.8217 89.6235,147.9771 C89.3493,148.1328 89.1006,148.3326 88.878,148.5768 C88.6551,148.821 88.4796,149.121 88.3509,149.4765 C88.2225,149.8317 88.158,150.2757 88.158,150.8091 L86.6667,150.8091 Z" id="Stroke-70" stroke="#FFFFFF" stroke-width="0.5" mask="url(#mask-4)"></path>
                            <g id="Group-73" mask="url(#mask-4)">
                                <g transform="translate(25.800000, 171.000000)">
                                    <line x1="0.21918" y1="0.2763" x2="14.46918" y2="14.5263" id="Fill-71" stroke="none" fill="#FFFFFF" fill-rule="evenodd"></line>
                                    <line x1="0.21918" y1="0.2763" x2="14.46918" y2="14.5263" id="Stroke-72" stroke="#FFFFFF" stroke-width="4.5" fill="none"></line>
                                </g>
                            </g>
                            <g id="Group-76" mask="url(#mask-4)">
                                <g transform="translate(26.400000, 170.700000)"></g>
                            </g>
                            <path d="M147.39714,214.60287 C150.36924,214.62627 207.66924,233.22627 207.66924,233.22627 L222.66924,225.42627 L193.56924,186.42627 L147.39714,214.60287 Z" id="Fill-77" fill="#25334B" mask="url(#mask-4)"></path>
                            <path d="M220.34049,191.82894 L211.33599,227.64504 C210.82929,229.66044 212.47389,231.56904 214.54209,231.36534 L269.75169,225.93474 C271.02009,225.80994 272.07159,224.89764 272.37459,223.65954 L280.78869,189.23814 C281.27259,187.25754 279.68379,185.38044 277.65039,185.53074 L223.03149,189.56664 C221.74059,189.66174 220.65609,190.57344 220.34049,191.82894" id="Fill-78" fill="#FF7479" mask="url(#mask-4)"></path>
                            <path d="M182.65638,237.28071 L224.75598,263.59281 C225.74238,264.20961 227.04438,263.87481 227.61138,262.85901 L247.04928,228.03291 C247.64448,226.96641 247.17258,225.61911 246.04188,225.15711 L200.59278,206.58951 C199.65978,206.20851 198.58818,206.56761 198.07338,207.43431 L181.98528,234.51561 C181.42038,235.46661 181.71858,236.69481 182.65638,237.28071" id="Fill-79" fill="#202534" mask="url(#mask-4)"></path>
                            <polygon id="Fill-80" fill="#FFFFFF" mask="url(#mask-4)" points="185.16915 235.3263 224.68965 259.9263 242.98335 227.1498 200.16915 208.9263"></polygon>
                            <polygon id="Fill-81" fill="#D8E0EC" mask="url(#mask-4)" points="203.32809 210.27102 193.56909 226.92642 208.86909 235.02642 219.69399 217.23702"></polygon>
                            <polygon id="Stroke-82" stroke="#D8E0EC" stroke-width="0.5" mask="url(#mask-4)" points="192.96915 228.7263 207.81915 236.3763 205.41915 239.9763 190.86915 231.7263"></polygon>
                            <line x1="193.71915" y1="230.9763" x2="202.41915" y2="236.0763" id="Stroke-83" stroke="#D8E0EC" stroke-width="0.5" mask="url(#mask-4)"></line>
                            <polygon id="Stroke-84" stroke="#D8E0EC" stroke-width="0.5" mask="url(#mask-4)" points="221.01915 219.5763 212.01915 234.2763 230.01915 244.4763 239.91915 227.6763"></polygon>
                            <path d="M149.61918,240.5763 C149.91918,240.2763 181.85478,236.3283 181.85478,236.3283 L226.11918,263.9763 L180.51918,270.8763 L149.61918,240.5763 Z" id="Fill-85" fill="#202534" mask="url(#mask-4)"></path>
                            <path d="M163.86915,249.4263 C165.36915,251.2263 176.16915,261.4263 176.16915,261.4263 L185.16915,259.9263 L171.36915,248.2263 L163.86915,249.4263 Z" id="Fill-86" fill="#D8E0EC" mask="url(#mask-4)"></path>
                            <polygon id="Fill-87" fill="#D8E0EC" mask="url(#mask-4)" points="165.36915 240.4263 195.06915 264.4263 218.46915 262.0263 181.86915 238.3263"></polygon>
                            <path d="M232.0947,254.8263 C232.0947,254.8263 251.1693,249.7263 248.4693,259.9263 C245.7693,270.1263 246.6693,278.2263 257.4693,277.6263 C268.2693,277.0263 261.6693,267.1263 257.4693,266.8263 C253.2693,266.5263 238.8693,268.9263 238.5693,283.0263 C238.2693,297.1263 234.6693,319.0263 238.5693,334.9263 C242.4693,350.8263 240.0693,385.9263 240.0693,385.9263" id="Stroke-88" stroke="#202534" stroke-width="0.5" mask="url(#mask-4)"></path>
                            <polygon id="Fill-89" fill="#202534" mask="url(#mask-4)" points="93.06918 320.2263 78.66918 362.8263 120.96918 325.9263"></polygon>
                            <path d="M99.08982,366.09468 L78.09342,362.51118 C77.19882,362.35818 76.59192,361.50138 76.74462,360.60678 C76.89702,359.71248 77.75412,359.10528 78.64842,359.25798 L99.64512,362.84148 C100.53972,362.99448 101.14632,363.85098 100.99392,364.74588 C100.84122,365.64018 99.98412,366.24738 99.08982,366.09468" id="Fill-90" fill="#202534" mask="url(#mask-4)"></path>
                            <path d="M123.66918,319.6263 C123.66918,319.6263 147.06918,306.1263 141.66918,295.9263 C136.26918,285.7263 100.56918,286.6263 100.56918,286.6263 L82.56918,310.6263 L123.66918,319.6263 Z" id="Fill-91" fill="#202534" mask="url(#mask-4)"></path>
                            <path d="M126.66918,280.0263 L95.16918,305.2263 L12.66918,280.0263 C12.66918,280.0263 49.56918,203.5263 88.86918,190.0263 C88.86918,190.0263 106.26918,184.9263 128.46918,195.7263 C128.46918,195.7263 146.76918,193.9263 126.66918,148.0263 L138.66918,142.9263 C138.66918,142.9263 168.96918,192.1263 164.76918,204.4263 C160.56918,216.7263 144.21918,216.8553 144.21918,216.8553 C144.21918,216.8553 156.06918,227.2263 155.16918,254.2263 C154.26918,281.2263 150.36918,284.2263 150.36918,284.2263 L126.66918,280.0263" id="Fill-92" fill="#FF2B39" mask="url(#mask-4)"></path>
                            <path d="M168.91599,207.92289 C168.91599,218.08689 160.67649,226.32639 150.51279,226.32639 C140.34879,226.32639 132.10959,218.08689 132.10959,207.92289 C132.10959,197.75919 140.34879,189.51969 150.51279,189.51969 C160.67649,189.51969 168.91599,197.75919 168.91599,207.92289" id="Fill-93" fill="#FFACAF" mask="url(#mask-4)"></path>
                            <path d="M176.46915,253.6263 C176.46915,253.6263 182.76915,239.2263 186.36915,239.5263 C189.96915,239.8263 196.86915,240.7263 198.36915,243.4263 C199.86915,246.1263 204.66915,252.4263 202.86915,253.6263 C201.06915,254.8263 194.76915,252.4263 192.66915,252.1263 C190.56915,251.8263 176.46915,264.1263 176.46915,264.1263 L176.46915,253.6263 Z" id="Fill-94" fill="#FFACAF" mask="url(#mask-4)"></path>
                            <path d="M174.06915,253.6263 L158.76915,285.4263 C158.76915,285.4263 167.16915,217.9263 120.36915,223.0263 C73.56915,228.1263 57.54465,293.9955 59.10705,294.2109 C60.66915,294.4263 95.16915,305.2263 95.16915,305.2263 L126.66915,280.0263 C126.66915,280.0263 147.12315,324.4359 166.44615,314.5311 C185.76915,304.6263 183.36915,256.6263 183.36915,256.6263 L174.06915,253.6263 Z" id="Fill-95" fill="#FF7479" mask="url(#mask-4)"></path>
                            <path d="M135.50043,174.40755 C135.50043,174.40755 148.80663,168.38955 147.18783,157.60785 L138.66933,142.92615 L126.66933,148.02615 L135.50043,174.40755 Z" id="Fill-96" fill="#FF7479" mask="url(#mask-4)"></path>
                            <path d="M130.86918,149.2263 C130.86918,149.2263 122.76918,136.9263 123.66918,135.1263 C124.56918,133.3263 128.46918,121.3263 129.36918,121.3263 C130.26918,121.3263 129.36918,125.8263 129.36918,125.8263 C129.36918,125.8263 132.96918,124.0263 134.46918,124.6263 C135.96918,125.2263 140.76918,128.5263 140.76918,128.5263 C140.76918,128.5263 142.26918,130.0263 141.66918,131.2263 C141.06918,132.4263 137.76918,130.0263 137.76918,130.0263 C137.76918,130.0263 133.56918,130.9263 133.56918,131.8263 C133.56918,132.7263 135.06918,134.2263 135.66918,133.6263 C136.26918,133.0263 137.16918,130.0263 138.06918,130.9263 C138.96918,131.8263 140.16918,133.6263 138.66918,136.0263 C137.16918,138.4263 132.66918,139.6263 132.66918,139.6263 C132.66918,139.6263 138.06918,146.2263 138.36918,146.8263 C138.66918,147.4263 130.86918,149.2263 130.86918,149.2263" id="Fill-97" fill="#FFACAF" mask="url(#mask-4)"></path>
                            <path d="M172.49313,220.73589 L162.73083,215.87499 C162.19383,215.60739 161.97333,214.94949 162.24063,214.41249 C162.50793,213.87579 163.16613,213.65499 163.70283,213.92229 L173.46543,218.78349 C174.00213,219.05079 174.22293,219.70869 173.95563,220.24569 C173.68803,220.78269 173.03013,221.00349 172.49313,220.73589" id="Fill-98" fill="#FF2B39" mask="url(#mask-4)"></path>
                            <path d="M129.38307,191.70093 C129.65577,190.88283 127.20177,183.52143 124.20267,182.15823 C121.20387,180.79503 129.38307,191.70093 129.38307,191.70093" id="Fill-99" fill="#202534" mask="url(#mask-4)"></path>
                            <path d="M12.66918,280.0263 C14.76918,280.0263 159.36918,307.9263 157.86918,336.7263 C156.36918,365.5263 100.26918,402.1263 100.26918,402.1263 L107.16918,343.0263 C107.16918,343.0263 65.16918,362.2263 39.96918,344.5263 C14.76918,326.8263 12.66918,280.0263 12.66918,280.0263" id="Fill-100" fill="#25334B" mask="url(#mask-4)"></path>
                            <path d="M2.47956,277.69575 L42.17226,301.59735 C42.17226,301.59735 30.18936,345.53175 50.46906,349.62645 C70.74906,353.72085 107.16906,343.02645 107.16906,343.02645 C107.16906,343.02645 35.06706,386.64825 2.02746,334.04565 C2.02746,334.04565 -2.82234,320.08995 2.47956,277.69575" id="Fill-101" fill="#202534" mask="url(#mask-4)"></path>
                            <polygon id="Fill-102" fill="#202534" mask="url(#mask-4)" points="51.0693 380.5263 53.4693 380.5263 53.4693 355.0263 51.0693 355.0263"></polygon>
                            <path d="M31.86918,392.5263 C31.86918,392.5263 27.66918,386.2263 46.86918,381.1263 C66.06918,376.0263 70.86918,373.3263 72.36918,376.3263 C73.86918,379.3263 72.36918,382.6263 72.36918,382.6263" id="Stroke-103" stroke="#202534" stroke-width="3.9" mask="url(#mask-4)"></path>
                            <path d="M38.95887,383.79993 C38.95887,383.79993 33.81927,376.47633 38.91927,376.47633 C44.01927,376.47633 70.71927,389.07633 71.61927,391.17633 L71.61927,400.77633" id="Stroke-104" stroke="#202534" stroke-width="3.9" mask="url(#mask-4)"></path>
                            <path d="M78.51918,383.3763 C78.51918,386.193 76.23588,388.4763 73.41918,388.4763 C70.60248,388.4763 68.31918,386.193 68.31918,383.3763 C68.31918,380.5596 70.60248,378.2763 73.41918,378.2763 C76.23588,378.2763 78.51918,380.5596 78.51918,383.3763" id="Fill-107" fill="#202534" mask="url(#mask-4)"></path>
                            <path d="M17.76918,280.0263 C17.76918,280.0263 72.66918,165.7263 126.66918,201.7263" id="Stroke-110" stroke="#FFFFFF" stroke-width="0.5" mask="url(#mask-4)"></path>
                            <path d="M32.61918,281.9763 C32.61918,281.9763 91.71918,187.4763 126.81918,204.8763" id="Stroke-111" stroke="#FFFFFF" stroke-width="0.5" mask="url(#mask-4)"></path>
                            <path d="M51.21918,286.4763 C51.21918,286.4763 97.41918,207.8763 129.51918,212.9763" id="Stroke-112" stroke="#FFFFFF" stroke-width="0.5" mask="url(#mask-4)"></path>
                            <path d="M72.21918,291.2763 C72.21918,291.2763 108.51918,222.8763 133.71918,220.1763" id="Stroke-113" stroke="#FFFFFF" stroke-width="0.5" mask="url(#mask-4)"></path>
                            <line x1="85.41918" y1="294.5763" x2="117.81918" y2="263.9763" id="Stroke-114" stroke="#FFFFFF" stroke-width="0.5" mask="url(#mask-4)"></line>
                            <path d="M19.51791,267.01497 C20.01921,266.07627 85.68471,275.04387 107.75181,295.16007" id="Stroke-115" stroke="#FFFFFF" stroke-width="0.5" mask="url(#mask-4)"></path>
                            <path d="M28.41918,251.6763 C29.91918,252.2763 104.58528,250.8171 118.71918,286.4763" id="Stroke-116" stroke="#FFFFFF" stroke-width="0.5" mask="url(#mask-4)"></path>
                            <path d="M39.01761,235.7772 C39.51921,235.1763 106.30101,241.1763 118.06011,250.7763" id="Stroke-117" stroke="#FFFFFF" stroke-width="0.5" mask="url(#mask-4)"></path>
                            <path d="M53.61918,217.176271 C53.61918,217.176271 120.55038,217.05 127.13478,233.613" id="Stroke-118" stroke="#FFFFFF" stroke-width="0.5" mask="url(#mask-4)"></path>
                            <path d="M73.71918,197.9763 C80.31918,194.0763 123.67668,201.2763 134.24808,226.3263" id="Stroke-119" stroke="#FFFFFF" stroke-width="0.5" mask="url(#mask-4)"></path>
                            <path d="M105.21918,189.2763 C105.21918,189.2763 121.11918,188.0763 137.01918,224.0763 C137.01918,224.0763 100.41918,250.4763 126.81918,279.8763" id="Stroke-120" stroke="#FFFFFF" stroke-width="0.5" mask="url(#mask-4)"></path>
                            <path d="M137.01918,224.0763 C137.01918,224.0763 150.21918,297.5763 155.91918,297.2763 C159.96678,297.0633 167.49378,275.0667 171.51768,262.3314" id="Stroke-121" stroke="#FFFFFF" stroke-width="0.5" mask="url(#mask-4)"></path>
                            <path d="M127.13469,233.61303 C127.13469,233.61303 139.41909,321.27633 160.41909,308.67633 C174.37599,300.30213 176.93679,278.67693 177.08439,265.11303" id="Stroke-122" stroke="#FFFFFF" stroke-width="0.5" mask="url(#mask-4)"></path>
                            <path d="M121.00551,271.7643 C121.00551,271.7643 139.11921,221.9763 152.01921,233.6763" id="Stroke-123" stroke="#FFFFFF" stroke-width="0.5" mask="url(#mask-4)"></path>
                            <path d="M127.53006,281.80317 C126.81906,279.87627 148.41906,238.78797 155.61906,246.88227" id="Stroke-124" stroke="#FFFFFF" stroke-width="0.5" mask="url(#mask-4)"></path>
                            <path d="M134.81442,294.5763 C134.81442,294.5763 152.83452,252.5772 158.57682,260.6769" id="Stroke-125" stroke="#FFFFFF" stroke-width="0.5" mask="url(#mask-4)"></path>
                            <path d="M158.61915,281.0763 C158.61915,281.0763 142.11915,305.2479 144.96915,307.5621" id="Stroke-126" stroke="#FFFFFF" stroke-width="0.5" mask="url(#mask-4)"></path>
                            <path d="M160.42911,281.9763 C160.42911,281.9763 157.71921,307.4763 165.21921,314.6763" id="Stroke-127" stroke="#FFFFFF" stroke-width="0.5" mask="url(#mask-4)"></path>
                            <path d="M162.51915,275.0763 C163.11915,276.5763 170.31915,296.0763 177.21915,298.1763" id="Stroke-128" stroke="#FFFFFF" stroke-width="0.5" mask="url(#mask-4)"></path>
                            <path d="M167.65944,266.94846 C167.31924,267.87636 175.26114,281.37636 182.39034,280.02636" id="Stroke-129" stroke="#FFFFFF" stroke-width="0.5" mask="url(#mask-4)"></path>
                            <path d="M171.17595,259.6395 C170.91915,260.3763 181.13325,266.0208 183.37635,266.9484" id="Stroke-130" stroke="#FFFFFF" stroke-width="0.5" mask="url(#mask-4)"></path>
                            <path d="M129.40374,157.47981 C129.56754,157.24161 131.38434,157.07181 133.71924,156.61761 C137.30394,155.92041 142.11114,154.55361 144.03774,151.24341" id="Stroke-131" stroke="#FFFFFF" stroke-width="0.5" mask="url(#mask-4)"></path>
                            <path d="M140.91918,155.3763 C140.91918,155.3763 153.33108,180.2049 153.87498,182.0406" id="Stroke-132" stroke="#FFFFFF" stroke-width="0.5" mask="url(#mask-4)"></path>
                            <path d="M134.91918,157.4763 C135.21918,158.0763 144.03768,185.4123 144.03768,185.4123" id="Stroke-133" stroke="#FFFFFF" stroke-width="0.5" mask="url(#mask-4)"></path>
                            <path d="M131.4009,164.38392 C132.2193,164.07642 145.1193,162.27642 147.2193,157.47642" id="Stroke-134" stroke="#FFFFFF" stroke-width="0.5" mask="url(#mask-4)"></path>
                            <path d="M150.51273,163.72563 C147.80643,171.77523 134.24793,171.44433 134.24793,171.44433" id="Fill-135" fill="#FFFFFF" mask="url(#mask-4)"></path>
                            <path d="M135.81918,179.3763 C136.41918,179.3763 152.76768,178.8123 154.49358,171.4446" id="Stroke-136" stroke="#FFFFFF" stroke-width="0.5" mask="url(#mask-4)"></path>
                            <path d="M132.10944,214.05735 C132.10944,214.05735 125.29344,198.78945 128.29254,193.33695 C131.29134,187.88385 133.74534,187.88385 135.10854,186.24825 C136.47174,184.61235 140.19684,177.51075 140.37894,177.10815 C140.56134,176.70555 140.28864,184.88505 138.38004,187.33845 C136.47174,189.79245 143.83314,176.74815 150.51264,178.22625 C150.51264,178.22625 142.46994,181.88595 143.01504,184.88505 C143.56044,187.88385 156.64704,177.25095 165.09894,182.15835 L156.91974,184.88505 L172.46034,184.88505 C172.46034,184.88505 161.82744,188.97465 162.64524,189.51975 C163.46304,190.06485 169.46124,189.51975 172.46034,193.88205 C172.46034,193.88205 163.21854,192.90705 164.15874,195.57585 C164.15874,195.57585 161.82744,196.88115 154.46604,194.15445 C154.46604,194.15445 156.37434,198.51675 161.00934,200.42565 C161.00934,200.42565 153.92064,196.60845 150.10374,195.51795 C146.28684,194.42715 141.65184,216.51135 132.10944,214.05735" id="Fill-137" fill="#202534" mask="url(#mask-4)"></path>
                            <path d="M38.91918,326.0763 C39.51918,326.3763 57.36918,325.9263 57.36918,325.9263 C57.36918,325.9263 68.24418,334.0266 69.96918,340.9263 C70.26918,342.1263 66.42588,349.974 60.09768,350.55" id="Stroke-138" stroke="#FFFFFF" stroke-width="0.5" mask="url(#mask-4)"></path>
                            <path d="M75.66918,295.16019 C75.51918,295.77639 65.61918,319.77639 82.41918,325.77639 C99.21918,331.77639 130.71918,326.37639 136.41918,330.57639 C142.11918,334.77639 100.11918,399.57639 100.11918,399.57639" id="Stroke-139" stroke="#FFFFFF" stroke-width="0.5" mask="url(#mask-4)"></path>
                            <path d="M282.21798,237.02844 C282.21798,237.02844 291.35448,236.22504 291.61818,236.22504 C291.88218,236.22504 283.96638,239.39154 285.02178,240.44724 C286.07718,241.50234 301.38108,236.75304 302.70018,234.64194 C302.70018,234.64194 304.01958,232.79514 304.28358,232.00344 C304.54758,231.21174 308.76918,231.21174 308.76918,231.21174 L306.13068,223.82364 L295.26918,220.32624 L282.21798,237.02844 Z" id="Fill-140" fill="#FFACAF" mask="url(#mask-4)"></path>
                            <path d="M305.76915,222.1263 C305.76915,222.1263 342.96915,232.3263 342.96915,195.1263 L365.16915,221.5263 C365.16915,221.5263 365.16915,241.3263 311.16915,238.6263 L305.76915,222.1263 Z" id="Fill-141" fill="#202534" mask="url(#mask-4)"></path>
                            <path d="M424.56918,247.6263 C424.56918,247.6263 442.26918,316.0263 442.86918,317.8263 C443.16678,318.7191 452.16918,344.8263 458.46918,360.1263 C459.69948,363.114 462.96918,321.1263 462.96918,321.1263 L470.46168,259.524 C470.46168,259.524 428.16918,233.8263 424.56918,247.6263" id="Fill-142" fill="#202534" mask="url(#mask-4)"></path>
                            <path d="M349.26918,174.4263 C349.26918,174.4263 413.46918,175.6263 426.66918,183.1263 L430.56918,251.5263 C430.56918,251.5263 321.06918,233.5263 349.26918,174.4263" id="Fill-143" fill="#202534" mask="url(#mask-4)"></path>
                            <path d="M321.8016,171.64809 C322.3764,171.41169 350.3505,156.88149 360.9576,185.12439 C360.9576,185.12439 368.0682,204.04899 345.5802,200.86029 C323.0925,197.67189 321.8016,171.64809 321.8016,171.64809" id="Fill-144" fill="#FF7479" mask="url(#mask-4)"></path>
                            <path d="M354.64719,188.55003 C354.64719,197.64963 347.27049,205.02633 338.17089,205.02633 C329.07159,205.02633 321.69489,197.64963 321.69489,188.55003 C321.69489,179.45073 329.07159,172.07403 338.17089,172.07403 C347.27049,172.07403 354.64719,179.45073 354.64719,188.55003" id="Fill-145" fill="#FFACAF" mask="url(#mask-4)"></path>
                            <path d="M330.39174,170.46801 C328.80384,170.99841 337.96164,183.15321 359.56854,190.73751 C359.56854,190.73751 360.83274,160.30161 330.39174,170.46801" id="Fill-146" fill="#FF7479" mask="url(#mask-4)"></path>
                            <path d="M328.46694,197.29779 L321.97224,199.60839 C321.58344,199.74639 321.15234,199.54149 321.01404,199.15329 L320.99604,199.10199 C320.85774,198.71319 321.06234,198.28209 321.45114,198.14379 L327.94614,195.83319 C328.33464,195.69519 328.76574,195.90009 328.90404,196.28859 L328.92234,196.33989 C329.06064,196.72869 328.85544,197.15949 328.46694,197.29779" id="Fill-147" fill="#FF2B39" mask="url(#mask-4)"></path>
                            <path d="M350.29515,169.89789 C350.60595,170.20869 346.56435,155.90859 353.09265,153.11079 C359.62125,150.31299 364.28415,154.66539 363.97335,159.01719 C363.66255,163.36959 350.29515,169.89789 350.29515,169.89789" id="Fill-148" fill="#FF7479" mask="url(#mask-4)"></path>
                            <path d="M426.66918,183.1263 L430.56918,251.5263 L498.96918,271.9263 C498.96918,271.9263 522.06918,240.4263 533.16918,217.0263 L558.36918,172.3263 L535.62348,182.6232 C521.41878,189.054 509.07318,198.9756 499.73688,211.4643 L490.86918,223.3263 C490.86918,223.3263 436.56918,185.2263 426.66918,183.1263" id="Fill-149" fill="#25334B" mask="url(#mask-4)"></path>
                            <polygon id="Fill-150" fill="#FFFFFF" mask="url(#mask-4)" points="450.06918 257.2263 451.24818 269.9511 452.38068 282.6801 454.64328 308.1384 456.80598 333.6051 457.88628 346.3386 458.91918 359.0763 457.73958 346.3515 456.60738 333.6225 454.34508 308.1642 452.18268 282.6975 451.10268 269.964"></polygon>
                            <path d="M428.440302,214.19124 C428.31927,215.07624 493.71927,248.07624 493.71927,248.07624 L553.71927,174.57624" id="Stroke-151" stroke="#FFFFFF" stroke-width="0.5" mask="url(#mask-4)"></path>
                            <path d="M437.61918,187.4763 L437.61918,200.0763 L450.21918,205.7763 C450.21918,205.7763 458.98788,205.7763 456.70338,200.2263" id="Stroke-152" stroke="#FFFFFF" stroke-width="0.5" mask="url(#mask-4)"></path>
                            <path d="M458.84067,359.12964 L438.80337,362.96034 C438.23607,363.06864 437.86077,363.62154 437.96937,364.18884 C438.07767,364.75614 438.63057,365.13144 439.19757,365.02314 L459.23487,361.19244 C459.80217,361.08414 460.17747,360.53124 460.06917,359.96364 C459.96057,359.39664 459.40797,359.02134 458.84067,359.12964" id="Fill-153" fill="#202534" mask="url(#mask-4)"></path>
                            <path d="M266.89689,227.00805 L271.88139,237.60225 C272.16819,238.21245 272.87709,238.55205 273.57969,238.41705 L298.46289,233.62695 C299.39139,233.44845 299.91729,232.53135 299.55819,231.71715 L295.94319,223.52145 C295.68969,222.94575 295.05849,222.59325 294.39099,222.65385 L268.13889,225.04545 C267.11379,225.13875 266.48499,226.13235 266.89689,227.00805" id="Fill-155" fill="#202534" mask="url(#mask-4)"></path>
                            <path d="M307.86918,240.4263 C307.86918,240.4263 310.56918,246.7263 314.46918,250.3263 C318.36918,253.9263 327.66918,252.1263 329.16918,251.5263 C330.66918,250.9263 335.57808,254.4855 335.57808,254.4855 L337.26918,246.7263 L331.56918,241.9263 L307.86918,240.4263 Z" id="Fill-156" fill="#FFACAF" mask="url(#mask-4)"></path>
                            <path d="M301.79973,234.5013 L311.45013,228.0027 C311.90523,227.6958 312.50013,227.6937 312.95763,227.9967 L331.20693,240.0813 C331.96593,240.5835 332.02503,241.6761 331.32453,242.2575 L322.05213,249.9519 C321.57813,250.3452 320.89863,250.3701 320.39703,250.0125 L301.76973,236.7324 C300.99813,236.1822 301.01373,235.0308 301.79973,234.5013" id="Fill-157" fill="#25334B" mask="url(#mask-4)"></path>
                            <path d="M332.46918,256.3263 C333.36918,256.3263 375.66918,272.8263 387.66918,267.1263 C399.66918,261.4263 394.26918,211.9263 394.26918,211.9263 L373.56918,196.6263 L374.76918,224.8263 C374.76918,224.8263 381.06918,252.1263 367.86918,250.3263 C354.66918,248.5263 337.26918,243.4263 337.26918,243.4263 L332.46918,256.3263 Z" id="Fill-158" fill="#202534" mask="url(#mask-4)"></path>
                        </g>
                        <g id="Group-162" stroke-width="1" fill="none" transform="translate(333.900000, 201.174000)">
                            <mask id="mask-6" fill="white">
                                <use xlink:href="#path-5"></use>
                            </mask>
                            <g id="Clip-161"></g>
                            <path d="M65.76918,66.5763 C65.76918,73.4523 59.52378,79.0263 51.81918,79.0263 C44.11458,79.0263 37.86918,73.4523 37.86918,66.5763 C37.86918,59.7003 44.11458,54.1263 51.81918,54.1263 C59.52378,54.1263 65.76918,59.7003 65.76918,66.5763" id="Fill-160" fill="#25334B" mask="url(#mask-6)"></path>
                        </g>
                        <g id="Group-204" stroke-width="1" fill="none" transform="translate(84.300000, 0.174000)">
                            <polygon id="Fill-163" fill="#FFFFFF" points="219.96915 235.9263 237.06915 247.6263 245.16915 241.0263 228.66915 229.9263"></polygon>
                            <path d="M243.36918,245.8263 C243.36918,245.8263 238.56918,244.3263 238.26918,242.8263 C237.96918,241.3263 237.36918,238.9263 235.86918,239.5263 C234.36918,240.1263 233.30028,248.0187 233.30028,248.0187 C233.30028,248.0187 235.56918,251.8263 237.66918,251.5263 C239.76918,251.2263 243.36918,245.8263 243.36918,245.8263" id="Fill-165" fill="#FFACAF"></path>
                            <polyline id="Fill-167" fill="#FFFFFF" points="184.86915 226.9263 189.66915 236.2263 213.06915 232.3263 210.06915 223.3263 184.26915 226.9263"></polyline>
                            <path d="M208.32657,219.75735 C207.95367,219.75735 202.52157,223.71525 202.25787,225.56265 C201.99417,227.40945 204.89637,227.14545 206.21577,226.09005 C207.53487,225.03465 208.59057,223.97925 209.64567,223.97925 C210.70137,223.97925 213.18297,225.46815 213.18297,225.46815 C213.18297,225.46815 213.86787,219.75735 208.32657,219.75735" id="Fill-169" fill="#FFACAF"></path>
                            <path d="M158.1192,236.32827 C158.1192,236.32827 161.1693,248.52627 174.9693,245.52627 C188.7693,242.52627 189.9693,236.82627 192.3693,242.22627 C194.7693,247.62627 195.3693,254.52627 203.4693,253.62627 C211.5693,252.72627 223.8693,226.02627 213.0693,214.32627 C202.2693,202.62627 206.7693,197.22627 209.4693,196.62627 C212.1693,196.02627 213.0693,201.78147 213.0693,201.78147" id="Stroke-171" stroke="#202534" stroke-width="0.5"></path>
                            <path d="M169.95777,245.9763 C169.95777,245.9763 184.71927,244.7763 187.71927,247.4763 C190.71927,250.1763 198.64437,253.3263 200.38167,253.5513" id="Stroke-173" stroke="#202534" stroke-width="0.5"></path>
                            <path d="M209.41935,209.8263 C209.41935,209.8263 209.01915,203.6763 213.21915,201.8763" id="Stroke-175" stroke="#202534" stroke-width="0.5"></path>
                            <path d="M145.71915,255.5763 C145.71915,255.5763 154.71915,254.9763 157.11915,257.9763 C159.51915,260.9763 159.82005,268.7466 163.41945,269.3613 C167.01915,269.9763 180.23775,271.1763 178.72845,275.0763" id="Stroke-177" stroke="#202534" stroke-width="0.5"></path>
                            <path d="M220.86915,87.52473 L136.86915,87.52473 C134.88915,87.52473 133.26915,85.90503 133.26915,83.92473 L133.26915,74.82633 C133.26915,72.84633 134.88915,71.22633 136.86915,71.22633 L220.86915,71.22633 C222.84915,71.22633 224.46915,72.84633 224.46915,74.82633 L224.46915,83.92473 C224.46915,85.90503 222.84915,87.52473 220.86915,87.52473" id="Fill-179" fill="#D8E0EC"></path>
                            <polygon id="Fill-181" fill="#D8E0EC" points="140.46915 86.8263 144.42375 102.8112 149.16915 86.8263"></polygon>
                            <line x1="138.66915" y1="76.9263" x2="216.96915" y2="76.9263" id="Stroke-183" stroke="#FFFFFF" stroke-width="0.9"></line>
                            <line x1="138.66915" y1="82.6263" x2="216.96915" y2="82.6263" id="Stroke-185" stroke="#FFFFFF" stroke-width="0.9"></line>
                            <path d="M85.86915,62.8263 C85.86915,71.1105 79.15335,77.8263 70.86915,77.8263 C62.58495,77.8263 55.86915,71.1105 55.86915,62.8263 C55.86915,54.5421 62.58495,47.8263 70.86915,47.8263 C79.15335,47.8263 85.86915,54.5421 85.86915,62.8263" id="Fill-187" fill="#FF616A"></path>
                            <path d="M75.66915,73.0263 C76.86915,72.4263 95.16915,97.3263 95.16915,97.3263 L79.56915,63.7263 L75.66915,73.0263 Z" id="Fill-189" fill="#FF616A"></path>
                            <polyline id="Stroke-191" stroke="#FFFFFF" stroke-width="2.1" points="63.21918 62.3763 67.11918 67.7763 78.66918 56.5263"></polyline>
                            <g id="Group-195">
                                <mask id="mask-8" fill="white">
                                    <use xlink:href="#path-7"></use>
                                </mask>
                                <g id="Clip-194"></g>
                            </g>
                            <path d="M277.26918,141.22473 L193.26918,141.22473 C191.28918,141.22473 189.66918,139.60503 189.66918,137.62473 L189.66918,128.52633 C189.66918,126.54633 191.28918,124.92633 193.26918,124.92633 L277.26918,124.92633 C279.24918,124.92633 280.86918,126.54633 280.86918,128.52633 L280.86918,137.62473 C280.86918,139.60503 279.24918,141.22473 277.26918,141.22473" id="Fill-196" fill="#D8E0EC"></path>
                            <polygon id="Fill-198" fill="#D8E0EC" points="253.86918 140.5263 257.82378 156.5112 262.56918 140.5263"></polygon>
                            <line x1="195.06915" y1="130.6263" x2="273.36915" y2="130.6263" id="Stroke-200" stroke="#FFFFFF" stroke-width="0.9"></line>
                            <line x1="273.36918" y1="136.3263" x2="195.06918" y2="136.3263" id="Fill-202" fill="#FFFFFF"></line>
                        </g>
                    </g>
                </g>
            </g>
        </g>
    </g>
</svg>